<svg width="78" height="30" viewBox="0 0 78 30" fill="none" xmlns="http://www.w3.org/2000/svg">
<path d="M9.65234 4.12695H4.85352V7.10742H7.32812C8.36719 7.12109 9.17839 7.3877 9.76172 7.90723C10.3451 8.42676 10.6367 9.13314 10.6367 10.0264C10.6367 10.9242 10.3428 11.6396 9.75488 12.1729C9.16699 12.7061 8.36491 12.9818 7.34863 13H3.53418V3.04688H9.65234V4.12695ZM4.85352 8.1875V11.9268H7.25293C7.90462 11.9268 8.41048 11.7536 8.77051 11.4072C9.13509 11.0609 9.31738 10.596 9.31738 10.0127C9.31738 9.45215 9.14193 9.01009 8.79102 8.68652C8.44466 8.36296 7.9502 8.19661 7.30762 8.1875H4.85352ZM13.8809 9.2334C13.8809 8.50879 14.0221 7.8571 14.3047 7.27832C14.5918 6.69954 14.9883 6.25293 15.4941 5.93848C16.0046 5.62402 16.5856 5.4668 17.2373 5.4668C18.2445 5.4668 19.0579 5.81543 19.6777 6.5127C20.3021 7.20996 20.6143 8.13737 20.6143 9.29492V9.38379C20.6143 10.1038 20.4753 10.751 20.1973 11.3252C19.9238 11.8949 19.5296 12.3392 19.0146 12.6582C18.5042 12.9772 17.9163 13.1367 17.251 13.1367C16.2484 13.1367 15.4349 12.7881 14.8105 12.0908C14.1908 11.3936 13.8809 10.4707 13.8809 9.32227V9.2334ZM15.1523 9.38379C15.1523 10.2041 15.3415 10.8626 15.7197 11.3594C16.1025 11.8561 16.613 12.1045 17.251 12.1045C17.8936 12.1045 18.404 11.8538 18.7822 11.3525C19.1605 10.8467 19.3496 10.1403 19.3496 9.2334C19.3496 8.4222 19.1559 7.76595 18.7686 7.26465C18.3857 6.75879 17.8753 6.50586 17.2373 6.50586C16.613 6.50586 16.1094 6.75423 15.7266 7.25098C15.3438 7.74772 15.1523 8.45866 15.1523 9.38379ZM30.1543 5.60352V13H28.8828V6.64941H26.3672L26.2168 9.41797C26.1348 10.6895 25.9206 11.5986 25.5742 12.1455C25.2324 12.6924 24.6878 12.9772 23.9404 13H23.4346V11.8857L23.7969 11.8584C24.207 11.8128 24.501 11.5758 24.6787 11.1475C24.8564 10.7191 24.9704 9.92611 25.0205 8.76855L25.1572 5.60352H30.1543ZM35.5654 8.15332H37.4863C38.3249 8.16243 38.988 8.38118 39.4756 8.80957C39.9632 9.23796 40.207 9.81901 40.207 10.5527C40.207 11.291 39.9564 11.8835 39.4551 12.3301C38.9538 12.7767 38.2793 13 37.4316 13H34.3008V5.60352H35.5654V8.15332ZM35.5654 9.18555V11.9678H37.4453C37.9193 11.9678 38.2861 11.847 38.5459 11.6055C38.8057 11.3594 38.9355 11.0244 38.9355 10.6006C38.9355 10.1904 38.8079 9.85547 38.5527 9.5957C38.3021 9.33138 37.9489 9.19466 37.4932 9.18555H35.5654ZM45.167 5.60352V11.9678H47.874V5.60352H49.1387V11.9678H51.8389V5.60352H53.1104V13H43.8955V5.60352H45.167ZM60.1758 13.1367C59.1732 13.1367 58.3574 12.8086 57.7285 12.1523C57.0996 11.4915 56.7852 10.6097 56.7852 9.50684V9.27441C56.7852 8.54069 56.9242 7.88672 57.2021 7.3125C57.4847 6.73372 57.8766 6.28255 58.3779 5.95898C58.8838 5.63086 59.4307 5.4668 60.0186 5.4668C60.9801 5.4668 61.7275 5.78353 62.2607 6.41699C62.7939 7.05046 63.0605 7.95736 63.0605 9.1377V9.66406H58.0498C58.068 10.3932 58.2799 10.9834 58.6855 11.4346C59.0957 11.8812 59.6152 12.1045 60.2441 12.1045C60.6908 12.1045 61.069 12.0133 61.3789 11.8311C61.6888 11.6488 61.96 11.4072 62.1924 11.1064L62.9648 11.708C62.3451 12.6605 61.4154 13.1367 60.1758 13.1367ZM60.0186 6.50586C59.5081 6.50586 59.0798 6.69271 58.7334 7.06641C58.387 7.43555 58.1729 7.95508 58.0908 8.625H61.7959V8.5293C61.7594 7.88672 61.5863 7.38997 61.2764 7.03906C60.9665 6.68359 60.5472 6.50586 60.0186 6.50586Z" fill="black"/>
<path d="M77.3536 26.3536C77.5488 26.1583 77.5488 25.8417 77.3536 25.6464L74.1716 22.4645C73.9763 22.2692 73.6597 22.2692 73.4645 22.4645C73.2692 22.6597 73.2692 22.9763 73.4645 23.1716L76.2929 26L73.4645 28.8284C73.2692 29.0237 73.2692 29.3403 73.4645 29.5355C73.6597 29.7308 73.9763 29.7308 74.1716 29.5355L77.3536 26.3536ZM0 26.5H77V25.5H0V26.5Z" fill="black"/>
</svg>
