<svg width="142" height="30" viewBox="0 0 142 30" fill="none" xmlns="http://www.w3.org/2000/svg">
<path d="M8.53125 4.85938H3.04688V8.26562H5.875C7.0625 8.28125 7.98958 8.58594 8.65625 9.17969C9.32292 9.77344 9.65625 10.5807 9.65625 11.6016C9.65625 12.6276 9.32031 13.4453 8.64844 14.0547C7.97656 14.6641 7.0599 14.9792 5.89844 15H1.53906V3.625H8.53125V4.85938ZM3.04688 9.5V13.7734H5.78906C6.53385 13.7734 7.11198 13.5755 7.52344 13.1797C7.9401 12.7839 8.14844 12.2526 8.14844 11.5859C8.14844 10.9453 7.94792 10.4401 7.54688 10.0703C7.15104 9.70052 6.58594 9.51042 5.85156 9.5H3.04688ZM13.0781 10.6953C13.0781 9.86719 13.2396 9.1224 13.5625 8.46094C13.8906 7.79948 14.3438 7.28906 14.9219 6.92969C15.5052 6.57031 16.1693 6.39062 16.9141 6.39062C18.0651 6.39062 18.9948 6.78906 19.7031 7.58594C20.4167 8.38281 20.7734 9.44271 20.7734 10.7656V10.8672C20.7734 11.6901 20.6146 12.4297 20.2969 13.0859C19.9844 13.737 19.5339 14.2448 18.9453 14.6094C18.362 14.974 17.6901 15.1562 16.9297 15.1562C15.7839 15.1562 14.8542 14.7578 14.1406 13.9609C13.4323 13.1641 13.0781 12.1094 13.0781 10.7969V10.6953ZM14.5312 10.8672C14.5312 11.8047 14.7474 12.5573 15.1797 13.125C15.6172 13.6927 16.2005 13.9766 16.9297 13.9766C17.6641 13.9766 18.2474 13.6901 18.6797 13.1172C19.112 12.5391 19.3281 11.7318 19.3281 10.6953C19.3281 9.76823 19.1068 9.01823 18.6641 8.44531C18.2266 7.86719 17.6432 7.57812 16.9141 7.57812C16.2005 7.57812 15.625 7.86198 15.1875 8.42969C14.75 8.9974 14.5312 9.8099 14.5312 10.8672ZM31.3906 6.54688V15H29.9375V7.74219H27.0625L26.8906 10.9062C26.7969 12.3594 26.5521 13.3984 26.1562 14.0234C25.7656 14.6484 25.1432 14.974 24.2891 15H23.7109V13.7266L24.125 13.6953C24.5938 13.6432 24.9297 13.3724 25.1328 12.8828C25.3359 12.3932 25.4661 11.487 25.5234 10.1641L25.6797 6.54688H31.3906ZM37.2891 9.46094H39.4844C40.4427 9.47135 41.2005 9.72135 41.7578 10.2109C42.3151 10.7005 42.5938 11.3646 42.5938 12.2031C42.5938 13.0469 42.3073 13.724 41.7344 14.2344C41.1615 14.7448 40.3906 15 39.4219 15H35.8438V6.54688H37.2891V9.46094ZM37.2891 10.6406V13.8203H39.4375C39.9792 13.8203 40.3984 13.6823 40.6953 13.4062C40.9922 13.125 41.1406 12.7422 41.1406 12.2578C41.1406 11.7891 40.9948 11.4062 40.7031 11.1094C40.4167 10.8073 40.013 10.651 39.4922 10.6406H37.2891ZM47.9766 6.54688V13.8203H51.0703V6.54688H52.5156V13.8203H55.6016V6.54688H57.0547V15H46.5234V6.54688H47.9766ZM64.8438 15.1562C63.6979 15.1562 62.7656 14.7812 62.0469 14.0312C61.3281 13.276 60.9688 12.2682 60.9688 11.0078V10.7422C60.9688 9.90365 61.1276 9.15625 61.4453 8.5C61.7682 7.83854 62.2161 7.32292 62.7891 6.95312C63.3672 6.57812 63.9922 6.39062 64.6641 6.39062C65.763 6.39062 66.6172 6.7526 67.2266 7.47656C67.8359 8.20052 68.1406 9.23698 68.1406 10.5859V11.1875H62.4141C62.4349 12.0208 62.6771 12.6953 63.1406 13.2109C63.6094 13.7214 64.2031 13.9766 64.9219 13.9766C65.4323 13.9766 65.8646 13.8724 66.2188 13.6641C66.5729 13.4557 66.8828 13.1797 67.1484 12.8359L68.0312 13.5234C67.3229 14.612 66.2604 15.1562 64.8438 15.1562ZM64.6641 7.57812C64.0807 7.57812 63.5911 7.79167 63.1953 8.21875C62.7995 8.64062 62.5547 9.23438 62.4609 10H66.6953V9.89062C66.6536 9.15625 66.4557 8.58854 66.1016 8.1875C65.7474 7.78125 65.2682 7.57812 64.6641 7.57812Z" fill="black"/>
<path d="M141.854 26.3536C142.049 26.1583 142.049 25.8417 141.854 25.6464L138.672 22.4645C138.476 22.2692 138.16 22.2692 137.964 22.4645C137.769 22.6597 137.769 22.9763 137.964 23.1716L140.793 26L137.964 28.8284C137.769 29.0237 137.769 29.3403 137.964 29.5355C138.16 29.7308 138.476 29.7308 138.672 29.5355L141.854 26.3536ZM0.5 26.5H141.5V25.5H0.5V26.5Z" fill="black"/>
</svg>
